#ifndef USERPREFS_HAS_SPLASH
#define icon_width 99
#define icon_height 38
static uint8_t icon_bits[] ={
  0x00, 0x00, 0x00, 0x00, 0x00, 0x00, 0x00, 0x00, 0x00, 0x00, 0x00, 0x00, 
  0x00, 0x00, 0x00, 0x21, 0x00, 0x00, 0x00, 0x00, 0x00, 0x00, 0x00, 0x00, 
  0x00, 0x00, 0x00, 0x20, 0x14, 0x01, 0x00, 0x00, 0x00, 0x00, 0x00, 0x00, 
  0x00, 0x00, 0x00, 0x00, 0x80, 0x81, 0x04, 0x00, 0x00, 0x7E, 0xE0, 0xF8, 
  0xF1, 0xFF, 0x03, 0x00, 0x00, 0x0A, 0x21, 0x41, 0x00, 0x00, 0x3C, 0x40, 
  0xF0, 0x30, 0x0F, 0x03, 0x00, 0x00, 0xA0, 0x00, 0x21, 0x00, 0x00, 0x3C, 
  0x60, 0xF0, 0x10, 0x1E, 0x02, 0x00, 0x00, 0x06, 0x00, 0xC0, 0x00, 0x00, 
  0x78, 0x20, 0xF0, 0x00, 0x0E, 0x00, 0x00, 0x00, 0x08, 0x41, 0x10, 0x00, 
  0x00, 0xF0, 0x10, 0xF0, 0x00, 0x0F, 0x00, 0x00, 0x80, 0x03, 0x52, 0x00, 
  0x01, 0x00, 0xF0, 0x10, 0xF0, 0x00, 0x0E, 0x00, 0x00, 0x00, 0x00, 0x00, 
  0xC0, 0x00, 0x00, 0xF0, 0x00, 0xF0, 0x00, 0x1E, 0x00, 0x00, 0x00, 0x01, 
  0x00, 0x00, 0x0A, 0x00, 0xE0, 0x09, 0xF0, 0x00, 0x0F, 0x00, 0x00, 0x60, 
  0x00, 0x00, 0x00, 0x02, 0x00, 0xE0, 0x09, 0xF0, 0x00, 0x0E, 0x00, 0x00, 
  0x20, 0x00, 0x00, 0x00, 0x05, 0x00, 0xC0, 0x05, 0xF0, 0x00, 0x1E, 0x00, 
  0x00, 0x60, 0x00, 0x00, 0x00, 0x06, 0x00, 0xC0, 0x07, 0xF0, 0x00, 0x0F, 
  0x00, 0x00, 0x20, 0x80, 0x00, 0x00, 0x02, 0x00, 0xC0, 0x03, 0xF0, 0x00, 
  0x1E, 0x00, 0x00, 0x20, 0xC0, 0x01, 0x00, 0x18, 0x00, 0x80, 0x03, 0xF0, 
  0x00, 0x0E, 0x00, 0x00, 0x28, 0x40, 0x01, 0x00, 0x08, 0x00, 0x80, 0x01, 
  0xF0, 0x00, 0x1F, 0x00, 0x00, 0x80, 0x41, 0x8B, 0x64, 0x07, 0x00, 0x00, 
  0x01, 0xF8, 0x01, 0x1F, 0x00, 0x00, 0xE0, 0xFB, 0xFE, 0xBB, 0x03, 0x00, 
  0x00, 0x00, 0x00, 0x00, 0x00, 0x00, 0x00, 0xC0, 0xFF, 0xDF, 0x6D, 0x0B, 
  0xC0, 0xA4, 0x4A, 0x95, 0xA4, 0x51, 0x11, 0x00, 0xC0, 0xFF, 0xFF, 0x12, 
  0x03, 0x00, 0x12, 0x41, 0x14, 0x11, 0x48, 0x08, 0x00, 0x88, 0x0A, 0x41, 
  0xC9, 0x05, 0x00, 0x00, 0x00, 0x00, 0x00, 0x00, 0x00, 0x00, 0xC0, 0x98, 
  0xAA, 0xA2, 0x0B, 0x00, 0x00, 0x00, 0x00, 0x00, 0x00, 0x00, 0x00, 0x20, 
  0x65, 0x55, 0x8D, 0x00, 0x00, 0x90, 0x96, 0x25, 0x0C, 0x40, 0x00, 0x00, 
  0x10, 0xD9, 0x24, 0x69, 0x0A, 0x00, 0x08, 0x92, 0x61, 0x18, 0x44, 0x00, 
  0x00, 0x40, 0x22, 0x5F, 0x41, 0x00, 0x00, 0x0C, 0xB6, 0xC3, 0x30, 0xCC, 
  0x00, 0x00, 0x00, 0x04, 0xBA, 0x21, 0x00, 0x00, 0x08, 0xB6, 0x81, 0x61, 
  0x4C, 0x00, 0x00, 0x00, 0x0A, 0x00, 0xBC, 0x00, 0x00, 0x18, 0x92, 0x81, 
  0x21, 0xC9, 0x00, 0x00, 0x80, 0x01, 0x00, 0x0C, 0x00, 0x00, 0x00, 0x00, 
  0x00, 0x00, 0x08, 0x00, 0x00, 0x00, 0x00, 0x00, 0x82, 0x00, 0x00, 0x00, 
  0x00, 0x00, 0x00, 0x00, 0x00, 0x00, 0x00, 0x82, 0x92, 0x00, 0x00, 0x00, 
  0x00, 0x00, 0x00, 0x00, 0x00, 0x00, 0x00, 0x08, 0x60, 0x48, 0x05, 0x10, 
  0x44, 0x01, 0x45, 0x02, 0x44, 0x08, 0x44, 0x00, 0x80, 0x8B, 0x89, 0xA1, 
  0x13, 0x90, 0x2D, 0xD6, 0x36, 0x86, 0x69, 0x36, 0x00, 0x40, 0xB0, 0x50, 
  0x92, 0x01, 0x00, 0x00, 0x00, 0x00, 0x00, 0x00, 0x40, 0x00, 0x48, 0x1A, 
  0x02, 0x69, 0x00, 0x00, 0x00, 0x00, 0x00, 0x00, 0x00, 0x00, 0x00, 0xA0, 
  0x14, 0x00, 0x88, 0x06, 0x00, 0x00, 0x00, 0x00, 0x00, 0x00, 0x00, 0x00, 
  0x00, 0x01, 0x00, 0x00, 0x00, 0x00, 0x00, 0x00, 0x00, 0x00, 0x00, 0x00, 
  0x00, 0x00, 0x00, 0x00, 0x00, 0x00, 0x00, 0x00, 0x00, 0x00, 0x00, 0x00, 
  0x00, 0x00, };

#endif